<svg data-v-423bf9ae="" xmlns="http://www.w3.org/2000/svg" viewBox="0 0 573 90" class="iconLeft"><!----><!----><!----><g data-v-423bf9ae="" id="4bb6ca0d-eea7-439a-b60b-75d74f230b25" fill="black" transform="matrix(5.357142948374458,0,0,5.357142948374458,106.24998492929987,9.374998490725247)"><path d="M0.70 3.04L0.70 3.04L0.70 1.70L0.70 1.70Q0.70 1.42 0.96 1.40L0.96 1.40L3.54 1.05L3.54 1.05Q3.77 1.05 3.77 1.27L3.77 1.27L3.77 12.02L3.77 12.02Q3.77 12.13 3.71 12.19L3.71 12.19L3.71 12.19Q3.64 12.25 3.54 12.25L3.54 12.25L2.08 12.25L2.08 12.25Q1.86 12.25 1.86 12.02L1.86 12.02L1.86 3.18L0.99 3.29L0.99 3.29Q0.70 3.33 0.70 3.04ZM5.30 10.23L5.30 10.23L5.30 9.32L5.30 9.32Q5.30 9.10 5.52 9.10L5.52 9.10L6.94 9.10L6.94 9.10Q7.16 9.10 7.16 9.32L7.16 9.32L7.16 9.91L7.16 9.91Q7.16 10.47 7.72 10.47L7.72 10.47L8.48 10.47L8.48 10.47Q9.04 10.47 9.04 9.91L9.04 9.91L9.04 8.50L5.68 7.40L5.68 7.40Q5.30 7.28 5.30 6.89L5.30 6.89L5.30 4.46L5.30 4.46Q5.30 3.48 5.82 2.96L5.82 2.96L5.82 2.96Q6.34 2.45 7.31 2.45L7.31 2.45L8.89 2.45L8.89 2.45Q9.88 2.45 10.39 2.96L10.39 2.96L10.39 2.96Q10.90 3.47 10.90 4.46L10.90 4.46L10.90 5.39L10.90 5.39Q10.90 5.61 10.68 5.61L10.68 5.61L9.26 5.61L9.26 5.61Q9.16 5.61 9.10 5.55L9.10 5.55L9.10 5.55Q9.04 5.49 9.04 5.39L9.04 5.39L9.04 4.80L9.04 4.80Q9.04 4.25 8.48 4.25L8.48 4.25L7.71 4.25L7.71 4.25Q7.44 4.25 7.30 4.39L7.30 4.39L7.30 4.39Q7.15 4.53 7.15 4.80L7.15 4.80L7.15 6.00L10.53 7.08L10.53 7.08Q10.90 7.21 10.90 7.60L10.90 7.60L10.90 10.23L10.90 10.23Q10.90 11.22 10.39 11.74L10.39 11.74L10.39 11.74Q9.88 12.25 8.89 12.25L8.89 12.25L7.31 12.25L7.31 12.25Q6.34 12.25 5.82 11.73L5.82 11.73L5.82 11.73Q5.30 11.22 5.30 10.23ZM11.60 2.67L11.60 4.07L11.60 4.07Q11.60 4.18 11.66 4.24L11.66 4.24L11.66 4.24Q11.72 4.30 11.83 4.30L11.83 4.30L13.45 4.30L13.45 12.02L13.45 12.02Q13.45 12.25 13.68 12.25L13.68 12.25L15.13 12.25L15.13 12.25Q15.35 12.25 15.35 12.02L15.35 12.02L15.35 4.30L16.98 4.30L16.98 4.30Q17.21 4.30 17.21 4.07L17.21 4.07L17.21 2.67L17.21 2.67Q17.21 2.45 16.98 2.45L16.98 2.45L11.83 2.45L11.83 2.45Q11.72 2.45 11.66 2.51L11.66 2.51L11.66 2.51Q11.60 2.57 11.60 2.67L11.60 2.67ZM18.32 10.23L18.32 10.23L18.32 4.46L18.32 4.46Q18.32 3.47 18.83 2.96L18.83 2.96L18.83 2.96Q19.35 2.45 20.34 2.45L20.34 2.45L21.91 2.45L21.91 2.45Q22.89 2.45 23.41 2.96L23.41 2.96L23.41 2.96Q23.93 3.48 23.93 4.46L23.93 4.46L23.93 5.50L23.93 5.50Q23.93 5.61 23.86 5.67L23.86 5.67L23.86 5.67Q23.80 5.73 23.70 5.73L23.70 5.73L22.38 5.73L22.38 5.73Q22.16 5.73 22.16 5.50L22.16 5.50L22.16 4.82L22.16 4.82Q22.16 4.26 21.60 4.26L21.60 4.26L20.71 4.26L20.71 4.26Q20.15 4.26 20.15 4.82L20.15 4.82L20.15 9.88L20.15 9.88Q20.15 10.45 20.71 10.45L20.71 10.45L21.60 10.45L21.60 10.45Q22.16 10.45 22.16 9.88L22.16 9.88L22.16 8.67L21.43 8.67L21.43 8.67Q21.21 8.67 21.21 8.44L21.21 8.44L21.21 7.04L21.21 7.04Q21.21 6.82 21.43 6.82L21.43 6.82L23.70 6.82L23.70 6.82Q23.93 6.82 23.93 7.04L23.93 7.04L23.93 10.23L23.93 10.23Q23.93 11.22 23.41 11.73L23.41 11.73L23.41 11.73Q22.89 12.25 21.91 12.25L21.91 12.25L20.34 12.25L20.34 12.25Q19.35 12.25 18.83 11.74L18.83 11.74L18.83 11.74Q18.32 11.22 18.32 10.23ZM25.32 12.02L25.32 12.02L25.32 2.67L25.32 2.67Q25.32 2.57 25.38 2.51L25.38 2.51L25.38 2.51Q25.44 2.45 25.55 2.45L25.55 2.45L28.91 2.45L28.91 2.45Q29.90 2.45 30.41 2.96L30.41 2.96L30.41 2.96Q30.93 3.47 30.93 4.46L30.93 4.46L30.93 7.28L30.93 7.28Q30.93 8.50 30.14 8.99L30.14 8.99L30.86 12.00L30.86 12.00Q30.93 12.25 30.67 12.25L30.67 12.25L29.30 12.25L29.30 12.25Q29.10 12.25 29.06 12.05L29.06 12.05L28.39 9.30L27.15 9.30L27.15 12.02L27.15 12.02Q27.15 12.13 27.08 12.19L27.08 12.19L27.08 12.19Q27.02 12.25 26.92 12.25L26.92 12.25L25.55 12.25L25.55 12.25Q25.44 12.25 25.38 12.19L25.38 12.19L25.38 12.19Q25.32 12.13 25.32 12.02ZM27.15 4.26L27.15 7.49L28.54 7.49L28.54 7.49Q29.10 7.49 29.10 6.93L29.10 6.93L29.10 4.82L29.10 4.82Q29.10 4.26 28.54 4.26L28.54 4.26L27.15 4.26ZM32.32 12.02L32.32 12.02L32.32 2.67L32.32 2.67Q32.32 2.57 32.38 2.51L32.38 2.51L32.38 2.51Q32.44 2.45 32.53 2.45L32.53 2.45L37.69 2.45L37.69 2.45Q37.91 2.45 37.91 2.67L37.91 2.67L37.91 4.07L37.91 4.07Q37.91 4.31 37.69 4.31L37.69 4.31L34.23 4.31L34.23 6.47L36.86 6.47L36.86 6.47Q37.08 6.47 37.08 6.71L37.08 6.71L37.08 8.09L37.08 8.09Q37.08 8.33 36.86 8.33L36.86 8.33L34.23 8.33L34.23 10.40L37.69 10.40L37.69 10.40Q37.82 10.40 37.86 10.45L37.86 10.45L37.86 10.45Q37.91 10.50 37.91 10.62L37.91 10.62L37.91 12.02L37.91 12.02Q37.91 12.25 37.69 12.25L37.69 12.25L32.53 12.25L32.53 12.25Q32.44 12.25 32.38 12.19L32.38 12.19L32.38 12.19Q32.32 12.13 32.32 12.02ZM39.30 12.02L39.30 12.02L39.30 2.67L39.30 2.67Q39.30 2.57 39.36 2.51L39.36 2.51L39.36 2.51Q39.42 2.45 39.51 2.45L39.51 2.45L44.67 2.45L44.67 2.45Q44.89 2.45 44.89 2.67L44.89 2.67L44.89 4.07L44.89 4.07Q44.89 4.31 44.67 4.31L44.67 4.31L41.21 4.31L41.21 6.47L43.84 6.47L43.84 6.47Q44.06 6.47 44.06 6.71L44.06 6.71L44.06 8.09L44.06 8.09Q44.06 8.33 43.84 8.33L43.84 8.33L41.21 8.33L41.21 10.40L44.67 10.40L44.67 10.40Q44.80 10.40 44.84 10.45L44.84 10.45L44.84 10.45Q44.89 10.50 44.89 10.62L44.89 10.62L44.89 12.02L44.89 12.02Q44.89 12.25 44.67 12.25L44.67 12.25L39.51 12.25L39.51 12.25Q39.42 12.25 39.36 12.19L39.36 12.19L39.36 12.19Q39.30 12.13 39.30 12.02ZM46.28 12.02L46.28 12.02L46.28 2.67L46.28 2.67Q46.28 2.57 46.34 2.51L46.34 2.51L46.34 2.51Q46.40 2.45 46.50 2.45L46.50 2.45L47.61 2.45L47.61 2.45Q47.78 2.45 47.87 2.63L47.87 2.63L50.50 7.98L50.50 2.67L50.50 2.67Q50.50 2.45 50.72 2.45L50.72 2.45L52.04 2.45L52.04 2.45Q52.14 2.45 52.20 2.51L52.20 2.51L52.20 2.51Q52.26 2.57 52.26 2.67L52.26 2.67L52.26 12.02L52.26 12.02Q52.26 12.13 52.20 12.19L52.20 12.19L52.20 12.19Q52.14 12.25 52.04 12.25L52.04 12.25L50.93 12.25L50.93 12.25Q50.76 12.25 50.67 12.07L50.67 12.07L48.04 6.72L48.04 12.02L48.04 12.02Q48.04 12.25 47.82 12.25L47.82 12.25L46.50 12.25L46.50 12.25Q46.40 12.25 46.34 12.19L46.34 12.19L46.34 12.19Q46.28 12.13 46.28 12.02ZM53.66 12.02L53.66 12.02L53.66 2.67L53.66 2.67Q53.66 2.45 53.89 2.45L53.89 2.45L55.34 2.45L55.34 2.45Q55.44 2.45 55.50 2.51L55.50 2.51L55.50 2.51Q55.56 2.57 55.56 2.67L55.56 2.67L55.56 6.45L57.35 6.45L57.35 2.67L57.35 2.67Q57.35 2.57 57.42 2.51L57.42 2.51L57.42 2.51Q57.48 2.45 57.58 2.45L57.58 2.45L59.02 2.45L59.02 2.45Q59.26 2.45 59.26 2.67L59.26 2.67L59.26 12.02L59.26 12.02Q59.26 12.25 59.02 12.25L59.02 12.25L57.58 12.25L57.58 12.25Q57.48 12.25 57.42 12.19L57.42 12.19L57.42 12.19Q57.35 12.13 57.35 12.02L57.35 12.02L57.35 8.30L55.56 8.30L55.56 12.02L55.56 12.02Q55.56 12.13 55.50 12.19L55.50 12.19L55.50 12.19Q55.44 12.25 55.34 12.25L55.34 12.25L53.89 12.25L53.89 12.25Q53.66 12.25 53.66 12.02ZM60.66 10.23L60.66 10.23L60.66 4.46L60.66 4.46Q60.66 3.47 61.17 2.96L61.17 2.96L61.17 2.96Q61.68 2.45 62.67 2.45L62.67 2.45L64.24 2.45L64.24 2.45Q65.24 2.45 65.75 2.96L65.75 2.96L65.75 2.96Q66.26 3.47 66.26 4.46L66.26 4.46L66.26 10.23L66.26 10.23Q66.26 11.22 65.75 11.74L65.75 11.74L65.75 11.74Q65.24 12.25 64.24 12.25L64.24 12.25L62.67 12.25L62.67 12.25Q61.68 12.25 61.17 11.74L61.17 11.74L61.17 11.74Q60.66 11.22 60.66 10.23ZM62.48 4.82L62.48 9.88L62.48 9.88Q62.48 10.45 63.04 10.45L63.04 10.45L63.94 10.45L63.94 10.45Q64.50 10.45 64.50 9.88L64.50 9.88L64.50 4.82L64.50 4.82Q64.50 4.26 63.94 4.26L63.94 4.26L63.04 4.26L63.04 4.26Q62.48 4.26 62.48 4.82L62.48 4.82ZM67.66 10.23L67.66 10.23L67.66 2.73L67.66 2.73Q67.66 2.61 67.74 2.53L67.74 2.53L67.74 2.53Q67.82 2.45 67.94 2.45L67.94 2.45L69.28 2.45L69.28 2.45Q69.40 2.45 69.48 2.53L69.48 2.53L69.48 2.53Q69.56 2.61 69.56 2.73L69.56 2.73L69.56 9.84L69.56 9.84Q69.56 10.40 70.12 10.40L70.12 10.40L70.85 10.40L70.85 10.40Q71.41 10.40 71.41 9.84L71.41 9.84L71.41 2.73L71.41 2.73Q71.41 2.61 71.49 2.53L71.49 2.53L71.49 2.53Q71.57 2.45 71.69 2.45L71.69 2.45L72.98 2.45L72.98 2.45Q73.10 2.45 73.18 2.53L73.18 2.53L73.18 2.53Q73.26 2.61 73.26 2.73L73.26 2.73L73.26 10.23L73.26 10.23Q73.26 11.22 72.75 11.74L72.75 11.74L72.75 11.74Q72.24 12.25 71.24 12.25L71.24 12.25L69.67 12.25L69.67 12.25Q68.68 12.25 68.17 11.74L68.17 11.74L68.17 11.74Q67.66 11.22 67.66 10.23ZM74.52 10.23L74.52 10.23L74.52 9.32L74.52 9.32Q74.52 9.10 74.74 9.10L74.74 9.10L76.16 9.10L76.16 9.10Q76.38 9.10 76.38 9.32L76.38 9.32L76.38 9.91L76.38 9.91Q76.38 10.47 76.95 10.47L76.95 10.47L77.70 10.47L77.70 10.47Q78.26 10.47 78.26 9.91L78.26 9.91L78.26 8.50L74.90 7.40L74.90 7.40Q74.52 7.28 74.52 6.89L74.52 6.89L74.52 4.46L74.52 4.46Q74.52 3.48 75.04 2.96L75.04 2.96L75.04 2.96Q75.56 2.45 76.54 2.45L76.54 2.45L78.11 2.45L78.11 2.45Q79.10 2.45 79.61 2.96L79.61 2.96L79.61 2.96Q80.12 3.47 80.12 4.46L80.12 4.46L80.12 5.39L80.12 5.39Q80.12 5.61 79.90 5.61L79.90 5.61L78.48 5.61L78.48 5.61Q78.38 5.61 78.32 5.55L78.32 5.55L78.32 5.55Q78.26 5.49 78.26 5.39L78.26 5.39L78.26 4.80L78.26 4.80Q78.26 4.25 77.70 4.25L77.70 4.25L76.93 4.25L76.93 4.25Q76.67 4.25 76.52 4.39L76.52 4.39L76.52 4.39Q76.37 4.53 76.37 4.80L76.37 4.80L76.37 6.00L79.75 7.08L79.75 7.08Q80.12 7.21 80.12 7.60L80.12 7.60L80.12 10.23L80.12 10.23Q80.12 11.22 79.61 11.74L79.61 11.74L79.61 11.74Q79.10 12.25 78.11 12.25L78.11 12.25L76.54 12.25L76.54 12.25Q75.56 12.25 75.04 11.73L75.04 11.73L75.04 11.73Q74.52 11.22 74.52 10.23ZM81.52 12.02L81.52 12.02L81.52 2.67L81.52 2.67Q81.52 2.57 81.58 2.51L81.58 2.51L81.58 2.51Q81.63 2.45 81.73 2.45L81.73 2.45L86.88 2.45L86.88 2.45Q87.11 2.45 87.11 2.67L87.11 2.67L87.11 4.07L87.11 4.07Q87.11 4.31 86.88 4.31L86.88 4.31L83.43 4.31L83.43 6.47L86.06 6.47L86.06 6.47Q86.28 6.47 86.28 6.71L86.28 6.71L86.28 8.09L86.28 8.09Q86.28 8.33 86.06 8.33L86.06 8.33L83.43 8.33L83.43 10.40L86.88 10.40L86.88 10.40Q87.01 10.40 87.06 10.45L87.06 10.45L87.06 10.45Q87.11 10.50 87.11 10.62L87.11 10.62L87.11 12.02L87.11 12.02Q87.11 12.25 86.88 12.25L86.88 12.25L81.73 12.25L81.73 12.25Q81.63 12.25 81.58 12.19L81.58 12.19L81.58 12.19Q81.52 12.13 81.52 12.02Z"></path></g><!----><g data-v-423bf9ae="" id="dff50c13-be42-4b53-aa96-95cee22e8895" transform="matrix(1,0,0,1,-5,-5)" stroke="none" fill="black"><path d="M50 7c23.7 0 43 19.3 43 43S73.7 93 50 93 7 73.7 7 50 26.3 7 50 7m0-2C25.2 5 5 25.1 5 50s20.2 45 45 45 45-20.1 45-45S74.8 5 50 5z"></path><path d="M61.7 40.7L58 52.9l-.3 1H36.9s-.2-.3-.5-1.1l-3.7-12.1h29m2.6-2H30l4.5 14.7c.5 1.6 1.1 2.5 2.5 2.5h22.1l.7-2.5 3.7-12.2.8-2.5z"></path><circle cx="38.4" cy="66.7" r="1.9"></circle><circle cx="54.4" cy="66.7" r="1.9"></circle><path d="M53 62.9H35v-2.5h18c1.9 0 2.4-.5 2.7-1.6l.5-1.6c1.1-3.3 3.3-10.3 4.5-14.5 1.4-5.1 3.4-11.3 3.4-11.3l.3-.9H70V33h-3.9c-.6 1.9-2 6.5-3.1 10.4-1.2 4.2-3.4 11.2-4.5 14.6l-.5 1.6c-.7 2.2-2.3 3.3-5 3.3z"></path></g><!----></svg>